<mxfile host="app.diagrams.net" agent="Mozilla/5.0 (Windows NT 10.0; Win64; x64; rv:128.0) Gecko/20100101 Firefox/128.0" version="24.7.4">
  <diagram id="C5RBs43oDa-KdzZeNtuy" name="Page-1">
    <mxGraphModel dx="1500" dy="1993" grid="1" gridSize="10" guides="1" tooltips="1" connect="1" arrows="1" fold="1" page="1" pageScale="1" pageWidth="827" pageHeight="1169" math="0" shadow="0">
      <root>
        <mxCell id="WIyWlLk6GJQsqaUBKTNV-0" />
        <mxCell id="WIyWlLk6GJQsqaUBKTNV-1" parent="WIyWlLk6GJQsqaUBKTNV-0" />
        <mxCell id="2k_Up1OaFUUE34-ynXtq-18" value="" style="edgeStyle=orthogonalEdgeStyle;rounded=0;orthogonalLoop=1;jettySize=auto;html=1;" edge="1" parent="WIyWlLk6GJQsqaUBKTNV-1" source="2k_Up1OaFUUE34-ynXtq-11" target="2k_Up1OaFUUE34-ynXtq-17">
          <mxGeometry relative="1" as="geometry" />
        </mxCell>
        <mxCell id="2k_Up1OaFUUE34-ynXtq-11" value="&lt;div&gt;make_cart_label&lt;/div&gt;&lt;div&gt;int: amount&lt;/div&gt;&lt;div&gt;floate: price&lt;/div&gt;&lt;div&gt;string: name&lt;/div&gt;&lt;div&gt;string: serial number&lt;br&gt;&lt;/div&gt;" style="strokeWidth=2;html=1;shape=mxgraph.flowchart.terminator;whiteSpace=wrap;" vertex="1" parent="WIyWlLk6GJQsqaUBKTNV-1">
          <mxGeometry x="70" width="150" height="100" as="geometry" />
        </mxCell>
        <mxCell id="2k_Up1OaFUUE34-ynXtq-12" value="end" style="strokeWidth=2;html=1;shape=mxgraph.flowchart.terminator;whiteSpace=wrap;" vertex="1" parent="WIyWlLk6GJQsqaUBKTNV-1">
          <mxGeometry x="95" y="620" width="100" height="60" as="geometry" />
        </mxCell>
        <mxCell id="2k_Up1OaFUUE34-ynXtq-20" value="" style="edgeStyle=orthogonalEdgeStyle;rounded=0;orthogonalLoop=1;jettySize=auto;html=1;" edge="1" parent="WIyWlLk6GJQsqaUBKTNV-1" source="2k_Up1OaFUUE34-ynXtq-17" target="2k_Up1OaFUUE34-ynXtq-19">
          <mxGeometry relative="1" as="geometry" />
        </mxCell>
        <mxCell id="2k_Up1OaFUUE34-ynXtq-17" value="&lt;div&gt;update label with&lt;/div&gt;&lt;div&gt;name {serial number}Frame&lt;br&gt;&lt;/div&gt;" style="shape=parallelogram;perimeter=parallelogramPerimeter;whiteSpace=wrap;html=1;fixedSize=1;strokeWidth=2;" vertex="1" parent="WIyWlLk6GJQsqaUBKTNV-1">
          <mxGeometry x="60" y="130" width="170" height="60" as="geometry" />
        </mxCell>
        <mxCell id="2k_Up1OaFUUE34-ynXtq-22" value="no" style="edgeStyle=orthogonalEdgeStyle;rounded=0;orthogonalLoop=1;jettySize=auto;html=1;" edge="1" parent="WIyWlLk6GJQsqaUBKTNV-1" source="2k_Up1OaFUUE34-ynXtq-19" target="2k_Up1OaFUUE34-ynXtq-21">
          <mxGeometry relative="1" as="geometry" />
        </mxCell>
        <mxCell id="2k_Up1OaFUUE34-ynXtq-24" value="yes" style="edgeStyle=orthogonalEdgeStyle;rounded=0;orthogonalLoop=1;jettySize=auto;html=1;" edge="1" parent="WIyWlLk6GJQsqaUBKTNV-1" source="2k_Up1OaFUUE34-ynXtq-19" target="2k_Up1OaFUUE34-ynXtq-23">
          <mxGeometry relative="1" as="geometry" />
        </mxCell>
        <mxCell id="2k_Up1OaFUUE34-ynXtq-19" value="Error?" style="rhombus;whiteSpace=wrap;html=1;strokeWidth=2;" vertex="1" parent="WIyWlLk6GJQsqaUBKTNV-1">
          <mxGeometry x="90" y="230" width="110" height="80" as="geometry" />
        </mxCell>
        <mxCell id="2k_Up1OaFUUE34-ynXtq-34" value="" style="edgeStyle=orthogonalEdgeStyle;rounded=0;orthogonalLoop=1;jettySize=auto;html=1;" edge="1" parent="WIyWlLk6GJQsqaUBKTNV-1" source="2k_Up1OaFUUE34-ynXtq-21" target="2k_Up1OaFUUE34-ynXtq-12">
          <mxGeometry relative="1" as="geometry" />
        </mxCell>
        <mxCell id="2k_Up1OaFUUE34-ynXtq-21" value="&lt;div&gt;Pack &lt;br&gt;&lt;/div&gt;&lt;div&gt;{serial number}Frame&lt;br&gt;&lt;/div&gt;" style="shape=parallelogram;perimeter=parallelogramPerimeter;whiteSpace=wrap;html=1;fixedSize=1;strokeWidth=2;" vertex="1" parent="WIyWlLk6GJQsqaUBKTNV-1">
          <mxGeometry x="70" y="525" width="150" height="60" as="geometry" />
        </mxCell>
        <mxCell id="2k_Up1OaFUUE34-ynXtq-26" value="" style="edgeStyle=orthogonalEdgeStyle;rounded=0;orthogonalLoop=1;jettySize=auto;html=1;" edge="1" parent="WIyWlLk6GJQsqaUBKTNV-1" source="2k_Up1OaFUUE34-ynXtq-23" target="2k_Up1OaFUUE34-ynXtq-25">
          <mxGeometry relative="1" as="geometry" />
        </mxCell>
        <mxCell id="2k_Up1OaFUUE34-ynXtq-23" value="&lt;div&gt;make&lt;/div&gt;&lt;div&gt;{serial Number}Frame&lt;br&gt;&lt;/div&gt;" style="shape=parallelogram;perimeter=parallelogramPerimeter;whiteSpace=wrap;html=1;fixedSize=1;strokeWidth=2;" vertex="1" parent="WIyWlLk6GJQsqaUBKTNV-1">
          <mxGeometry x="240" y="240" width="160" height="60" as="geometry" />
        </mxCell>
        <mxCell id="2k_Up1OaFUUE34-ynXtq-29" value="" style="edgeStyle=orthogonalEdgeStyle;rounded=0;orthogonalLoop=1;jettySize=auto;html=1;" edge="1" parent="WIyWlLk6GJQsqaUBKTNV-1" source="2k_Up1OaFUUE34-ynXtq-25" target="2k_Up1OaFUUE34-ynXtq-28">
          <mxGeometry relative="1" as="geometry" />
        </mxCell>
        <mxCell id="2k_Up1OaFUUE34-ynXtq-25" value="configure columns of {serial number}Frame" style="whiteSpace=wrap;html=1;strokeWidth=2;" vertex="1" parent="WIyWlLk6GJQsqaUBKTNV-1">
          <mxGeometry x="440" y="240" width="120" height="60" as="geometry" />
        </mxCell>
        <mxCell id="2k_Up1OaFUUE34-ynXtq-31" value="" style="edgeStyle=orthogonalEdgeStyle;rounded=0;orthogonalLoop=1;jettySize=auto;html=1;" edge="1" parent="WIyWlLk6GJQsqaUBKTNV-1" source="2k_Up1OaFUUE34-ynXtq-28" target="2k_Up1OaFUUE34-ynXtq-30">
          <mxGeometry relative="1" as="geometry" />
        </mxCell>
        <mxCell id="2k_Up1OaFUUE34-ynXtq-28" value="&lt;div&gt;make and pack&lt;/div&gt;&lt;div&gt;{serial number}Label&lt;/div&gt;&lt;div&gt;to display name, amount,&lt;/div&gt;&lt;div&gt;&amp;nbsp;and price&lt;br&gt;&lt;/div&gt;" style="shape=parallelogram;perimeter=parallelogramPerimeter;whiteSpace=wrap;html=1;fixedSize=1;strokeWidth=2;" vertex="1" parent="WIyWlLk6GJQsqaUBKTNV-1">
          <mxGeometry x="420" y="340" width="160" height="80" as="geometry" />
        </mxCell>
        <mxCell id="2k_Up1OaFUUE34-ynXtq-33" value="when button pressed" style="edgeStyle=orthogonalEdgeStyle;rounded=0;orthogonalLoop=1;jettySize=auto;html=1;" edge="1" parent="WIyWlLk6GJQsqaUBKTNV-1" source="2k_Up1OaFUUE34-ynXtq-30" target="2k_Up1OaFUUE34-ynXtq-32">
          <mxGeometry relative="1" as="geometry" />
        </mxCell>
        <mxCell id="2k_Up1OaFUUE34-ynXtq-35" style="edgeStyle=orthogonalEdgeStyle;rounded=0;orthogonalLoop=1;jettySize=auto;html=1;" edge="1" parent="WIyWlLk6GJQsqaUBKTNV-1" source="2k_Up1OaFUUE34-ynXtq-30">
          <mxGeometry relative="1" as="geometry">
            <mxPoint x="150" y="490" as="targetPoint" />
          </mxGeometry>
        </mxCell>
        <mxCell id="2k_Up1OaFUUE34-ynXtq-30" value="&lt;div&gt;make and pack &lt;br&gt;&lt;/div&gt;&lt;div&gt;{serial number}Button&lt;/div&gt;&lt;div&gt;with text remove&lt;br&gt;&lt;/div&gt;" style="shape=parallelogram;perimeter=parallelogramPerimeter;whiteSpace=wrap;html=1;fixedSize=1;strokeWidth=2;" vertex="1" parent="WIyWlLk6GJQsqaUBKTNV-1">
          <mxGeometry x="420" y="460" width="160" height="60" as="geometry" />
        </mxCell>
        <mxCell id="2k_Up1OaFUUE34-ynXtq-32" value="&lt;div&gt;remove_cart_label&lt;/div&gt;&lt;div&gt;with argumentss&lt;/div&gt;&lt;div&gt;serial number and&lt;/div&gt;&lt;div&gt;is_cart_button = True&lt;br&gt;&lt;/div&gt;" style="shape=process;whiteSpace=wrap;html=1;backgroundOutline=1;strokeWidth=2;" vertex="1" parent="WIyWlLk6GJQsqaUBKTNV-1">
          <mxGeometry x="730" y="450" width="163" height="80" as="geometry" />
        </mxCell>
      </root>
    </mxGraphModel>
  </diagram>
</mxfile>
